<svg width="46" height="58" viewBox="0 0 46 58" fill="none" xmlns="http://www.w3.org/2000/svg">
<path d="M29.872 13.5C29.872 17.7433 26.4624 20.9881 22.5 20.9881C18.5377 20.9881 15.128 17.7433 15.128 13.5C15.128 9.25669 18.5377 6.0119 22.5 6.0119C26.4623 6.0119 29.872 9.25669 29.872 13.5ZM22.5 26.25C29.5416 26.25 35.25 20.5416 35.25 13.5C35.25 6.45837 29.5416 0.75 22.5 0.75C15.4584 0.75 9.75 6.45837 9.75 13.5C9.75 20.5416 15.4584 26.25 22.5 26.25Z" fill="#f5e9db" stroke="#f5e9db" stroke-width="0.5"/>
<path d="M0.75 57V57.25H1H45H45.25V57V50.913C45.25 38.6718 35.2874 28.75 23 28.75C10.7126 28.75 0.75 38.6718 0.75 50.913V57ZM39.8611 50.913V51.8804H6.13889V50.913C6.13889 41.6392 13.6869 34.1196 23 34.1196C32.3131 34.1196 39.8611 41.6392 39.8611 50.913Z" fill="#f5e9db" stroke="#f5e9db" stroke-width="0.5"/>
</svg>
